# Blender 4.2.1 LTS
# www.blender.org
mtllib Book.mtl
o Object
v 0.278024 1.666917 -1.292922
v 0.278024 -1.666917 -1.292922
v 0.278024 1.666917 1.108998
v 0.278024 -1.666917 1.108998
v -0.278024 1.666917 -1.292922
v -0.278024 -1.666917 -1.292922
v -0.278024 1.666917 1.108998
v -0.278024 -1.666917 1.108998
v -0.141451 -1.666917 -1.292922
v -0.213523 1.666917 1.108998
v -0.213523 -1.666917 1.108998
v -0.141451 1.666917 -1.292922
v 0.223278 -1.666917 1.108998
v 0.151206 1.666917 -1.292922
v 0.151206 -1.666917 -1.292922
v 0.223278 1.666917 1.108998
v -0.259927 -1.666917 -1.176495
v 0.260242 1.666917 -1.176495
v -0.259927 1.666917 -1.176495
v 0.260242 -1.666917 -1.176495
v -0.132166 -1.666917 -1.176495
v -0.132166 1.666917 -1.176495
v 0.141607 1.666917 -1.176495
v 0.141607 -1.666917 -1.176495
v -0.259927 -1.666917 -1.150088
v 0.260242 1.666917 -1.150088
v -0.132166 -1.666917 -1.150088
v -0.132166 1.666917 -1.150088
v 0.141607 1.666917 -1.150088
v 0.141607 -1.666917 -1.150088
v -0.259927 1.666917 -1.150088
v 0.260242 -1.666917 -1.150088
v -0.278024 -1.666917 -1.096131
v 0.278024 1.666917 -1.096131
v -0.213523 -1.666917 -1.096131
v -0.213523 1.666917 -1.096131
v 0.223278 1.666917 -1.096131
v 0.223278 -1.666917 -1.096131
v -0.278024 1.666917 -1.096131
v 0.278024 -1.666917 -1.096131
v -0.141451 -1.666917 -1.386770
v -0.233656 -1.666917 -1.356554
v 0.233656 1.666917 -1.356554
v 0.233656 -1.666917 -1.356554
v -0.233656 1.666917 -1.356554
v 0.151206 1.666917 -1.386770
v 0.151206 -1.666917 -1.386770
v -0.141451 1.666917 -1.386770
v 0.223278 1.666917 1.108998
v -0.190895 1.604729 1.089207
v -0.190895 -1.604729 -1.078077
v -0.190895 -1.604729 1.089207
v -0.190895 1.604729 -1.078077
v 0.223278 -1.666917 1.108998
v 0.200651 1.604729 -1.078077
v 0.200651 -1.604729 -1.078077
v -0.213523 -1.666917 -1.096131
v -0.213523 -1.666917 1.108998
v -0.213523 1.666917 1.108998
v -0.213523 1.666917 -1.096131
v 0.223278 1.666917 -1.096131
v 0.200651 1.604729 1.089207
v 0.200651 -1.604729 1.089207
v 0.223278 -1.666917 -1.096131
vn -0.0000 1.0000 -0.0000
vn -0.0000 -0.0000 1.0000
vn -0.9881 -0.0000 0.1536
vn -0.0000 -1.0000 -0.0000
vn 1.0000 -0.0000 -0.0000
vn 0.9885 -0.0000 0.1510
vn -1.0000 -0.0000 -0.0000
vn -0.9481 -0.0000 -0.3180
vn 0.9497 -0.0000 -0.3130
vn 0.3441 -0.0000 -0.9389
vn -0.3114 -0.0000 -0.9503
vn -0.0000 -0.0000 -1.0000
vn 0.8203 -0.0000 -0.5720
vn -0.8203 -0.0000 -0.5720
vn 0.9397 -0.3419 -0.0000
vn 0.6584 -0.0000 0.7527
vn 0.9397 0.3419 -0.0000
vn -0.9397 0.3419 -0.0000
vn -0.6584 -0.0000 0.7527
vn -0.9397 -0.3419 -0.0000
vn -0.0000 -0.2788 0.9603
vn -0.0000 0.2788 0.9603
vt 0.804295 0.056066
vt 0.814676 0.056067
vt 0.814646 0.406214
vt 0.804265 0.406213
vt 0.841505 0.470867
vt 0.841505 0.970899
vt 0.831831 0.970899
vt 0.831831 0.470867
vt 0.488861 0.470707
vt 0.488861 0.970739
vt 0.471398 0.970739
vt 0.471398 0.470707
vt 0.804519 0.056353
vt 0.813245 0.056353
vt 0.813245 0.407840
vt 0.804519 0.407840
vt 0.364580 0.470807
vt 0.364580 0.970839
vt 0.033840 0.970839
vt 0.033840 0.470807
vt 0.792699 0.024817
vt 0.745600 0.024813
vt 0.745601 0.009911
vt 0.792700 0.009915
vt 0.746383 0.024985
vt 0.724614 0.024985
vt 0.731686 0.014843
vt 0.746383 0.010026
vt 0.724614 0.056353
vt 0.734895 0.056353
vt 0.734895 0.407840
vt 0.724614 0.407840
vt 0.854089 0.243086
vt 0.854089 0.013568
vt 0.854002 0.242999
vt 0.854002 0.013482
vt 0.725188 0.056060
vt 0.733999 0.056060
vt 0.733969 0.406207
vt 0.725158 0.406206
vt 0.033062 0.471445
vt 0.033062 0.971477
vt 0.024851 0.971477
vt 0.024851 0.471445
vt 0.793031 0.024985
vt 0.793031 0.010026
vt 0.985668 0.013568
vt 0.985668 0.243086
vt 0.791501 0.043543
vt 0.747863 0.043543
vt 0.725191 0.024812
vt 0.747143 0.043301
vt 0.728051 0.043299
vt 0.791203 0.043304
vt 0.727498 0.043543
vt 0.394096 0.470807
vt 0.394096 0.970839
vt 0.376634 0.970839
vt 0.376634 0.470807
vt 0.813245 0.024985
vt 0.810411 0.043543
vt 0.492821 0.470707
vt 0.492821 0.970739
vt 0.814678 0.024819
vt 0.811765 0.043306
vt 0.500914 0.470707
vt 0.500914 0.970739
vt 0.791501 0.047752
vt 0.747863 0.047752
vt 0.747143 0.047494
vt 0.728051 0.047492
vt 0.791203 0.047498
vt 0.727498 0.047752
vt 0.372673 0.970839
vt 0.372673 0.470807
vt 0.810411 0.047752
vt 0.811764 0.047499
vt 0.831655 0.470707
vt 0.831655 0.970739
vt 0.413250 0.470753
vt 0.413250 0.970784
vt 0.400883 0.970784
vt 0.400883 0.470753
vt 0.461854 0.470707
vt 0.461854 0.970739
vt 0.457322 0.970739
vt 0.457322 0.470707
vt 0.457144 0.470753
vt 0.457144 0.970784
vt 0.732332 0.014708
vt 0.807539 0.014715
vt 0.394229 0.970784
vt 0.394229 0.470753
vt 0.806173 0.014843
vt 0.234904 0.025428
vt 0.499812 0.025438
vt 0.499810 0.094182
vt 0.234901 0.094172
vt 0.711324 0.025447
vt 0.711321 0.094190
vt 0.023390 0.094164
vt 0.023393 0.025420
vt 0.000000 0.000000
vt 0.985581 0.013482
vt 0.985581 0.242999
vt 0.021428 0.961253
vt 0.021308 0.480274
vt 0.738930 0.061649
vt 0.738930 0.402242
vt 0.844899 0.480194
vt 0.844899 0.961571
vt 0.800624 0.403070
vt 0.800654 0.058933
vt 0.737640 0.058927
vt 0.737610 0.403065
vt 0.021457 0.962149
vt 0.021457 0.480772
vt 0.800462 0.402242
vt 0.800462 0.061649
s 0
usemtl book
f 36/1/1 39/2/1 7/3/1 10/4/1
f 11/5/2 10/6/2 7/7/2 8/8/2
f 17/9/3 19/10/3 5/11/3 6/12/3
f 38/13/4 40/14/4 4/15/4 13/16/4
f 40/17/5 34/18/5 3/19/5 4/20/5
f 12/21/1 14/22/1 46/23/1 48/24/1
f 9/25/4 6/26/4 42/27/4 41/28/4
f 33/29/4 35/30/4 11/31/4 8/32/4
f 16/33/1 37/34/1 61/34/1 49/33/1
f 11/35/1 35/36/1 57/36/1 58/35/1
f 34/37/1 37/38/1 16/39/1 3/40/1
f 4/41/2 3/42/2 16/43/2 13/44/2
f 15/45/4 9/25/4 41/28/4 47/46/4
f 36/47/1 10/48/1 59/48/1 60/47/1
f 9/25/4 15/45/4 24/49/4 21/50/4
f 1/51/1 14/22/1 23/52/1 18/53/1
f 14/22/1 12/21/1 22/54/1 23/52/1
f 6/26/4 9/25/4 21/50/4 17/55/4
f 2/56/6 1/57/6 18/58/6 20/59/6
f 15/45/4 2/60/4 20/61/4 24/49/4
f 25/62/7 31/63/7 19/10/7 17/9/7
f 12/21/1 5/64/1 19/65/1 22/54/1
f 33/66/8 39/67/8 31/63/8 25/62/8
f 21/50/4 24/49/4 30/68/4 27/69/4
f 18/53/1 23/52/1 29/70/1 26/71/1
f 23/52/1 22/54/1 28/72/1 29/70/1
f 17/55/4 21/50/4 27/69/4 25/73/4
f 20/59/5 18/58/5 26/74/5 32/75/5
f 24/49/4 20/61/4 32/76/4 30/68/4
f 22/54/1 19/65/1 31/77/1 28/72/1
f 8/78/7 7/79/7 39/67/7 33/66/7
f 27/69/4 30/68/4 38/13/4 35/30/4
f 26/71/1 29/70/1 37/38/1 34/37/1
f 29/70/1 28/72/1 36/1/1 37/38/1
f 25/73/4 27/69/4 35/30/4 33/29/4
f 32/75/9 26/74/9 34/18/9 40/17/9
f 30/68/4 32/76/4 40/14/4 38/13/4
f 28/72/1 31/77/1 39/2/1 36/1/1
f 47/80/10 46/81/10 43/82/10 44/83/10
f 42/84/11 45/85/11 48/86/11 41/87/11
f 41/88/12 48/89/12 46/81/12 47/80/12
f 14/22/1 1/51/1 43/90/1 46/23/1
f 5/64/1 12/21/1 48/24/1 45/91/1
f 1/92/13 2/93/13 44/83/13 43/82/13
f 2/60/4 15/45/4 47/46/4 44/94/4
f 6/12/14 5/11/14 45/85/14 42/84/14
f 63/95/2 62/96/2 50/97/2 52/98/2
f 55/99/1 53/100/1 50/97/1 62/96/1
f 51/101/4 56/102/4 63/95/4 52/98/4
f 10/103/1 11/103/1 58/103/1 59/103/1
f 37/34/1 36/47/1 60/47/1 61/34/1
f 38/104/1 13/105/1 54/105/1 64/104/1
f 35/36/1 38/104/1 64/104/1 57/36/1
f 13/106/1 16/107/1 49/107/1 54/106/1
f 51/108/15 52/109/15 58/31/15 57/30/15
f 52/110/16 50/111/16 59/6/16 58/5/16
f 50/112/17 53/113/17 60/1/17 59/4/17
f 55/114/18 62/115/18 49/39/18 61/38/18
f 62/116/19 63/117/19 54/44/19 49/43/19
f 63/118/20 56/119/20 64/13/20 54/16/20
f 56/119/21 51/108/21 57/30/21 64/13/21
f 53/113/22 55/114/22 61/38/22 60/1/22
